<svg width="16" height="16" viewBox="0 0 16 16" fill="none" xmlns="http://www.w3.org/2000/svg">
<path d="M14.8211 6.8121V6.81366C14.7538 7.01876 14.5691 7.16279 14.353 7.18001C14.137 7.19724 13.9319 7.08295 13.8333 6.89194C13.7691 6.76669 13.7565 6.62109 13.8004 6.48645H13.7988C14.09 5.59719 13.8802 4.62182 13.2477 3.92669C12.6183 3.23313 11.6618 2.9247 10.7396 3.1204C10.6003 3.15015 10.4547 3.12353 10.3357 3.04682C10.2167 2.9701 10.1322 2.84955 10.1024 2.71178C10.0414 2.42527 10.2261 2.1419 10.5157 2.08084C11.7667 1.81625 13.124 2.20296 14.043 3.21434C14.9652 4.22415 15.2126 5.60188 14.8211 6.8121ZM11.1075 4.82221C10.9886 4.84726 10.8633 4.82535 10.76 4.75802C10.6566 4.69227 10.5862 4.58894 10.5596 4.46995C10.5063 4.22259 10.6645 3.97992 10.915 3.92669C11.5459 3.79205 12.2019 4.00184 12.634 4.47778C13.0833 4.97095 13.2023 5.64259 13.0113 6.23126C12.9737 6.34711 12.8923 6.44261 12.7827 6.49741C12.6731 6.55221 12.5463 6.56317 12.4305 6.52559C12.1878 6.44731 12.0547 6.18899 12.1346 5.94945H12.133C12.2301 5.65198 12.1612 5.32477 11.9498 5.0915C11.7353 4.85979 11.416 4.75646 11.1075 4.82221ZM11.5177 7.41955C12.3209 7.66692 13.2148 8.26498 13.2148 9.31706C13.2148 11.0611 10.6817 13.2577 6.87415 13.2577C3.96995 13.2577 1 11.8596 1 9.5613C1 8.35891 1.76715 6.97022 3.08695 5.65825C4.84982 3.9079 6.90702 3.11101 7.68043 3.87972C8.02173 4.21789 8.05461 4.80499 7.83543 5.50482C7.72114 5.85708 8.1689 5.66138 8.1689 5.66294C9.5936 5.06958 10.8383 5.03514 11.2923 5.68017C11.5334 6.02303 11.5115 6.50524 11.2876 7.06416C11.1843 7.32092 11.3189 7.36006 11.5177 7.41955ZM6.88041 12.4342C9.1975 12.2072 10.9557 10.7981 10.8054 9.28575C10.6551 7.77651 8.65424 6.73538 6.33714 6.9624C4.02005 7.18941 2.26188 8.60002 2.41217 10.1093C2.56247 11.6216 4.56331 12.6612 6.88041 12.4342ZM7.11212 8.1272C8.25344 8.41997 8.83585 9.48928 8.3693 10.5273C7.89648 11.5903 6.53597 12.1555 5.38212 11.786C4.26742 11.4291 3.79617 10.3363 4.28464 9.35151C4.76371 8.38709 6.00993 7.84226 7.11212 8.1272ZM6.26982 10.64C6.49057 10.2815 6.37472 9.87129 6.0115 9.71786C5.65297 9.56913 5.18799 9.72256 4.96724 10.067C4.74336 10.413 4.84825 10.8263 5.20521 10.986C5.56687 11.1504 6.04594 10.9938 6.26982 10.64Z" fill="#6C7D8F"/>
</svg>
