<svg width="16" height="16" viewBox="0 0 16 16" fill="none" xmlns="http://www.w3.org/2000/svg">
<path d="M12.8874 9.58125C12.6374 8.77812 12.3499 8.10312 11.9077 6.99844C11.9764 4.09687 10.7702 1.75 7.99206 1.75C5.18268 1.75 4.00299 4.14375 4.07799 6.99844C3.63424 8.10469 3.34831 8.775 3.09831 9.58125C2.56706 11.2922 2.73893 12 2.87018 12.0156C3.15143 12.05 3.96549 10.7281 3.96549 10.7281C3.96549 11.4937 4.35924 12.4922 5.21237 13.2125C4.79987 13.3391 3.87331 13.6797 4.09362 14.0531C4.27174 14.3547 7.15924 14.2453 7.99206 14.1516C8.82487 14.2453 11.7124 14.3547 11.8905 14.0531C12.1108 13.6812 11.1827 13.3391 10.7717 13.2125C11.6249 12.4906 12.0186 11.4922 12.0186 10.7281C12.0186 10.7281 12.8327 12.05 13.1139 12.0156C13.2467 11.9984 13.4186 11.2906 12.8874 9.58125Z" fill="#6C7D8F"/>
</svg>
