<svg width="16" height="16" viewBox="0 0 16 16" fill="none" xmlns="http://www.w3.org/2000/svg">
<path d="M11.1531 5.19656C11.3256 5.19656 11.4953 5.20969 11.6659 5.22844C11.2066 3.08906 8.92 1.5 6.30906 1.5C3.39063 1.5 1 3.48844 1 6.015C1 7.47281 1.795 8.67 3.12438 9.6L2.59375 11.1966L4.45 10.2666C5.11375 10.3969 5.64625 10.5319 6.30906 10.5319C6.47594 10.5319 6.64094 10.5244 6.80406 10.5122C6.70094 10.1569 6.64 9.78563 6.64 9.39844C6.64094 7.07906 8.63219 5.19656 11.1531 5.19656ZM8.29937 3.7575C8.70062 3.7575 8.96406 4.02094 8.96406 4.42031C8.96406 4.81781 8.70062 5.08406 8.29937 5.08406C7.90281 5.08406 7.50344 4.81781 7.50344 4.42031C7.50344 4.02 7.90188 3.7575 8.29937 3.7575ZM4.58406 5.08406C4.18562 5.08406 3.78437 4.81781 3.78437 4.42031C3.78437 4.02094 4.18562 3.7575 4.58406 3.7575C4.9825 3.7575 5.24688 4.02 5.24688 4.42031C5.24688 4.81781 4.9825 5.08406 4.58406 5.08406ZM16 9.33469C16 7.21219 13.8756 5.4825 11.4897 5.4825C8.96313 5.4825 6.97469 7.21313 6.97469 9.33469C6.97469 11.4628 8.96406 13.1869 11.4897 13.1869C12.0184 13.1869 12.5519 13.0547 13.0825 12.9216L14.5384 13.7203L14.1391 12.3928C15.205 11.5922 16 10.5319 16 9.33469ZM10.0253 8.67C9.76188 8.67 9.49469 8.4075 9.49469 8.13938C9.49469 7.875 9.76188 7.60875 10.0253 7.60875C10.4284 7.60875 10.69 7.875 10.69 8.13938C10.69 8.4075 10.4284 8.67 10.0253 8.67ZM12.9456 8.67C12.6841 8.67 12.4178 8.4075 12.4178 8.13938C12.4178 7.875 12.6831 7.60875 12.9456 7.60875C13.345 7.60875 13.6103 7.875 13.6103 8.13938C13.6103 8.4075 13.345 8.67 12.9456 8.67Z" fill="#60BE38"/>
</svg>
