<svg width="16" height="16" viewBox="0 0 16 16" fill="none" xmlns="http://www.w3.org/2000/svg">
<path d="M8.12236 9.34684V7.23462H13.908C13.9679 7.534 13.9985 7.83337 13.9998 8.21865L14 8.27512C14 10.0506 13.3878 11.5812 12.3163 12.6526L12.3035 12.6433C11.2785 13.6553 9.8387 14.2447 8.12236 14.2447C4.81561 14.2447 2.14667 11.6355 2.00584 8.39202C2.00197 8.30284 2 8.21298 2 8.12247C2.00001 7.21227 2.18045 6.36213 2.5413 5.60202C2.54843 5.58625 2.55563 5.57051 2.56289 5.55481C3.51789 3.45696 5.65307 2 8.12213 2C8.2464 2 8.36933 2.00346 8.49046 2.01029C9.98067 2.09418 11.2333 2.68592 12.2241 3.59181L12.2081 3.6072C12.2136 3.61226 12.219 3.61734 12.2243 3.62243L10.5713 5.21424C10.1121 4.78568 9.31623 4.26527 8.12236 4.26527C6.81885 4.26527 5.65937 4.9375 4.9747 5.96624C4.77578 6.26939 4.61718 6.60243 4.50716 6.9571L4.51017 6.95922C4.38821 7.32511 4.32698 7.72137 4.3265 8.11775L4.3265 8.12236C4.3265 8.56453 4.39949 8.98845 4.53364 9.38282C4.56318 9.46427 4.59612 9.54424 4.63262 9.62244L4.62613 9.62726C5.20543 11.0144 6.56049 11.9795 8.12236 11.9795C10.2863 11.9795 11.2247 10.5824 11.5079 9.65247C11.5375 9.55415 11.5601 9.46118 11.5763 9.37583L11.5815 9.34684H8.12236Z" fill="#6C7D8F"/>
</svg>
