<?xml version="1.0" standalone="no"?><!DOCTYPE svg PUBLIC "-//W3C//DTD SVG 1.1//EN" "http://www.w3.org/Graphics/SVG/1.1/DTD/svg11.dtd"><svg t="1652017171617" class="icon" viewBox="0 0 1024 1024" version="1.1" xmlns="http://www.w3.org/2000/svg" p-id="1033" xmlns:xlink="http://www.w3.org/1999/xlink" width="200" height="200"><defs><style type="text/css">@font-face { font-family: feedback-iconfont; src: url("//at.alicdn.com/t/font_1031158_u69w8yhxdu.woff2?t=1630033759944") format("woff2"), url("//at.alicdn.com/t/font_1031158_u69w8yhxdu.woff?t=1630033759944") format("woff"), url("//at.alicdn.com/t/font_1031158_u69w8yhxdu.ttf?t=1630033759944") format("truetype"); }
</style></defs><path d="M737.5 252V148c0-28.7-23.3-52-52-52H165c-28.7 0-52 23.3-52 52v728c0 28.7 23.3 52 52 52h572.4V252zM529.3 754.7H251.8c-19.1 0-34.7-15.6-34.7-34.7s15.6-34.7 34.7-34.7h277.6c19.1 0 34.7 15.6 34.7 34.7-0.1 19.1-15.7 34.7-34.8 34.7z m0-208H251.8c-19.1 0-34.7-15.6-34.7-34.7s15.6-34.7 34.7-34.7h277.6c19.1 0 34.7 15.6 34.7 34.7-0.1 19.1-15.7 34.7-34.8 34.7z m69.4-208h-347c-19.1 0-34.7-15.6-34.7-34.7s15.6-34.7 34.7-34.7h347c19.1 0 34.7 15.6 34.7 34.7s-15.6 34.7-34.7 34.7zM859 269.3h-52V928h52c28.6 0 52-23.4 52-52V321.3c0-28.6-23.4-52-52-52z" p-id="1034"></path></svg>