<?xml version="1.0" standalone="no"?><!DOCTYPE svg PUBLIC "-//W3C//DTD SVG 1.1//EN" "http://www.w3.org/Graphics/SVG/1.1/DTD/svg11.dtd"><svg t="1652615701727" class="icon" viewBox="0 0 1024 1024" version="1.1" xmlns="http://www.w3.org/2000/svg" p-id="1896" xmlns:xlink="http://www.w3.org/1999/xlink" width="200" height="200"><defs><style type="text/css">@font-face { font-family: feedback-iconfont; src: url("//at.alicdn.com/t/font_1031158_u69w8yhxdu.woff2?t=1630033759944") format("woff2"), url("//at.alicdn.com/t/font_1031158_u69w8yhxdu.woff?t=1630033759944") format("woff"), url("//at.alicdn.com/t/font_1031158_u69w8yhxdu.ttf?t=1630033759944") format("truetype"); }
</style></defs><path d="M795.91835938 490.13457031c-49.66523437-60.0609375-111.53320313-102.77578125-179.10878907-123.73857422a439.74755859 439.74755859 0 0 0-102.54902344-19.37988281V162.25859375a30.79335937 30.79335937 0 0 0-11.46972656-27.40429688c-7.91015625-5.47910156-17.74160156-4.12382812-24.40898437 3.27832032L139.31914062 448.32324219a35.08769531 35.08769531 0 0 0-8.92792968 23.33496093c0 9.4359375 3.84257812 18.24960937 10.28320312 23.39121094l340.41972657 312.50742188a17.96748047 17.96748047 0 0 0 23.10820312 3.27832031 32.60039063 32.60039063 0 0 0 11.41347656-27.34804688v-174.3046875c128.03203125 4.63183594 213.74472656 49.77773437 273.80390625 130.0078125 28.81582031 36.66972656 49.94824219 81.36210937 61.47421875 130.29257813 2.71142578 13.78652344 12.825 23.50371094 24.40898438 23.39121094h2.48554687c12.20449219-1.29902344 21.58242187-13.73027344 21.75292969-28.75957032 1.35527344-159.33339844-33.22265625-284.65136719-103.62304688-374.26289062v0.22675781z" p-id="1897"></path></svg>